<?xml version="1.0" encoding="iso-8859-1"?>
<!-- Generator: Adobe Illustrator 19.0.0, SVG Export Plug-In . SVG Version: 6.00 Build 0)  -->
<svg version="1.1" id="Layer_1" xmlns="http://www.w3.org/2000/svg" xmlns:xlink="http://www.w3.org/1999/xlink" x="0px" y="0px"
	 viewBox="0 0 421.28 421.28" style="enable-background:new 0 0 421.28 421.28;" xml:space="preserve">
<ellipse style="fill:#A1AFB2;" cx="222.359" cy="405.987" rx="77.95" ry="12.107"/>
<path style="fill:#BA6831;" d="M190.796,73.959c5.711,36.218-32.217,72.279-84.708,80.597c-52.523,8.318-99.738-14.273-105.48-50.46
	c-5.695-36.179,29.16-91.514,81.636-99.84C134.784-4.07,185.046,37.804,190.796,73.959z"/>
<path style="fill:#994F1D;" d="M190.796,73.959c5.711,36.218-32.217,72.279-84.708,80.597c-52.523,8.318-99.738-14.273-105.48-50.46
	c-5.695-36.179,30.578-82.55,83.117-90.868C136.201,4.902,185.046,37.804,190.796,73.959z"/>
<path style="fill:#F9C1AC;" d="M420.259,120.031c10.91,68.978-66.907,116.854-169.661,133.12
	c-102.707,16.266-191.52-5.222-202.429-74.208c-10.925-68.97,63.504-138.075,166.25-154.364
	C317.166,8.313,409.326,51.069,420.259,120.031z"/>
<path style="fill:#F2B09C;" d="M420.259,120.031c10.91,68.978-66.907,116.854-169.661,133.12
	c-102.707,16.266-191.52-5.222-202.429-74.208"/>
<path style="fill:#994F1D;" d="M264.54,160.479c-15.155,11.359-89.08,3.545-63.968-38.699c19.259-32.469,68.49-1.89,68.49-1.89
	c-24.678-29.987,5.782-57.722,5.782-57.722l-81.825-33.312C101.574,50.699,38.023,114.864,48.169,178.951
	c7.247,45.978,49.168,70.837,106.685,77.501C276.505,255.121,264.54,160.479,264.54,160.479z"/>
<path style="fill:#113E49;" d="M337.339,102.111c1.142,6.979,7.696,11.721,14.651,10.61c6.979-1.119,11.729-7.633,10.626-14.627
	c-1.095-6.955-7.648-11.721-14.612-10.634C341.049,88.547,336.275,95.109,337.339,102.111z"/>
<path d="M337.339,102.111c1.142,6.979,7.696,11.721,14.651,10.61c6.979-1.119,11.729-7.633,10.626-14.627"/>
<path style="fill:#FFD3C5;" d="M329.273,130.366c0.654-0.095,1.308-0.465,1.78-1.087c5.167-7.129,12.816-11.823,21.496-13.186
	l0.032-0.016c8.672-1.378,17.4,0.74,24.497,5.916c1.166,0.859,2.867,0.638,3.757-0.583c0.882-1.174,0.638-2.875-0.567-3.773
	c-8.279-6.034-18.424-8.468-28.538-6.877l-0.016,0.016c-10.153,1.583-19.015,7.05-25.064,15.352
	c-0.874,1.182-0.599,2.891,0.583,3.765C327.847,130.334,328.572,130.484,329.273,130.366z"/>
<path style="fill:#CC753A;" d="M167.197,63.656l16.077,17.25l187.817-29.751c-38.731-25.009-96.689-41.992-157.57-32.343
	C152.617,28.462,102.74,62.522,73.611,98.26l83.645-13.233L167.197,63.656z"/>
<path style="fill:#BA6831;" d="M167.197,63.656l16.077,17.25l187.817-29.751c-38.731-25.009-95.027-31.508-155.908-21.851
	C154.247,38.954,102.74,62.522,73.611,98.26l83.645-13.233L167.197,63.656z"/>
<g>
	<path style="fill:#232728;" d="M187.449,362.349c-81.495,49.908-46.112,25.419-71.956,12.446
		c-38.195-19.157,10.571-49.231,42.969-95.011c32.39-45.757,37.628-43.095,72.483-18.416
		C265.816,286.037,242.886,328.407,187.449,362.349z"/>
	<path style="fill:#232728;" d="M125.961,369.021c-3.938-6.861-17.841-18.227-24.702-14.304L68.491,385.57
		c-6.869,3.915-9.208,12.65-5.293,19.511l0,0c3.938,6.829,12.682,9.192,19.519,5.27l52.2-17.975
		C141.747,388.437,129.9,375.89,125.961,369.021L125.961,369.021z"/>
</g>
<path style="fill:#F9C1AC;" d="M64.766,391.612c-6.309,0.607-32.768,8.334-32.177,14.604c0.614,6.286,28.097,8.759,34.367,8.16
	c6.309-0.614,10.917-6.215,10.287-12.485C76.644,395.598,71.044,391.005,64.766,391.612z"/>
<path style="fill:#F2B09C;" d="M214.75,272.166c-8.893-0.228-16.242,6.735-16.502,15.644l-1.237,49.12
	c-0.213,8.862,6.774,16.242,15.659,16.479l0,0c8.83,0.197,16.179-6.814,16.384-15.636l1.284-49.16
	C230.583,279.775,223.596,272.41,214.75,272.166L214.75,272.166z"/>
<path style="fill:#F9C1AC;" d="M198.736,352.503c1.182,8.239,14.572,54.453,22.851,53.311c8.239-1.197,8.176-49.349,7.026-57.588
	c-1.197-8.255-8.822-13.997-17.046-12.816C203.305,336.592,197.555,344.232,198.736,352.503z"/>
<g>
</g>
<g>
</g>
<g>
</g>
<g>
</g>
<g>
</g>
<g>
</g>
<g>
</g>
<g>
</g>
<g>
</g>
<g>
</g>
<g>
</g>
<g>
</g>
<g>
</g>
<g>
</g>
<g>
</g>
</svg>
