<svg xmlns="http://www.w3.org/2000/svg" height="1200" width="1600" version="1.1" xmlns:xlink="http://www.w3.org/1999/xlink" xmlns:svgjs="http://svgjs.com/svgjs"><rect fill="#f3ebe9" width="1600" height="1200"></rect><g><path d="M570.1 672.6V763.5C570.1 776.5 559.6 787 546.6 787H531.3C518.3 787 507.8 797.5 507.8 810.5V846.1C507.8 859.1 518.3 869.6 531.3 869.6H900.7C913.7 869.6 924.2 880.1 924.2 893.1V922.8C924.2 935.8 934.7 946.3 947.7 946.3H966.5C979.5 946.3 990 935.8 990 922.8V857.5C990 844.5 1000.5 834 1013.5 834H1316.5C1329.5 834 1340 823.5 1340 810.5V703.9" stroke="#231f20" stroke-width="4" stroke-linecap="round" stroke-linejoin="round" opacity="1" fill="none"></path></g><g><path d="M318.51 289.63L302.88 265.74 327.15 278.55 335.49 235.62 344.46 281.43 382.88 262.63 354.87 295.58 389.79 329.73 347.05 314.19 343.79 361.91 328.83 318.6 291.03 340.47 317.46 304.16 279.23 291.98 318.51 289.63Z" fill="#ffa0dc" opacity="1" stroke-width="4" stroke="none"></path></g><g><path d="M707.21 418.08L645.1 398.65V367.99H624.06L515.35 464.97 624.06 574.38H645.1V543.72L707.21 524.29V418.08Z" fill="#3c2c5b" opacity="1" stroke-width="4" stroke="none"></path><path d="M652.21 400.85L645.1 398.65V543.72L669.44 536.11 652.21 400.85Z" fill="#000000" opacity="0.3" stroke-width="4" stroke="none"></path><path d="M581.98 553.34H474.77V626.48H581.98V553.34Z" fill="#f3ebe9" opacity="1" stroke-width="4" stroke="none"></path><path d="M552.92 553.34H445.72V626.48H552.92V553.34Z" fill="#3c2c5b" opacity="1" stroke-width="4" stroke="none"></path><path d="M604.02 612.45H709.22V681.58H604.02L538.69 650.52 604.02 612.45Z" fill="#3c2c5b" opacity="1" stroke-width="4" stroke="none"></path><path d="M604.02 612.45H354.55V681.58H604.02V612.45Z" fill="#ff4f32" opacity="1" stroke-width="4" stroke="none"></path><path d="M624.06 367.99H374.58V574.38H624.06V367.99Z" fill="#ff4f32" opacity="1" stroke-width="4" stroke="none"></path><path d="M594 398.05H404.64V544.32H594V398.05Z" fill="#f3ebe9" opacity="1" stroke-width="4" stroke="none"></path><path d="M588.99 627.48H502.83V645.51H588.99V627.48Z" fill="#000000" opacity="1" stroke-width="4" stroke="none"></path><path d="M645.1 398.65V543.72" stroke="#000000" stroke-width="4" stroke-linecap="round" stroke-linejoin="round" opacity="1" fill="none"></path><path d="M431.69 427.1H499.82" stroke="#ff4f32" stroke-width="4" stroke-linecap="round" stroke-linejoin="round" opacity="1" fill="none"></path><path d="M431.69 447.14H463.75" stroke="#ff4f32" stroke-width="4" stroke-linecap="round" stroke-linejoin="round" opacity="1" fill="none"></path><path d="M431.69 477.2H481.79" stroke="#ff4f32" stroke-width="4" stroke-linecap="round" stroke-linejoin="round" opacity="1" fill="none"></path></g><g><path d="M1415.57 248.64L1457.78 670.72C1461.03 703.28 1431.09 729.73 1390.7 729.84L781.22 731.43C740.98 731.53 705.76 705.25 702.51 672.69L660.3 250.61C657.04 218.05 686.99 191.6 727.23 191.5L1336.7 189.91C1376.94 189.8 1412.31 216.08 1415.57 248.64Z" fill="#ffffff" opacity="1" stroke-width="4" stroke="none"></path></g><g><path d="M1419.65 731.26H1185.47L1065.47 671.11 979.26 731.26H852.45L838.51 717.88 788.19 731.26H755.91C730.04 731.26 706.79 710.24 704.08 684.19L657.26 237.08C654.56 211.13 673.3 190.01 699.27 190.01H804.73L890.14 244.42 946.28 190.01H1185.27L1322.31 236.07C1347.77 236.07 1411.43 210.43 1414.73 235.97 1414.73 236.38 1414.83 236.68 1414.83 237.08L1418.95 276.81 1379.65 343.1 1428.87 370.86 1461.65 684.19C1464.36 710.24 1445.51 731.26 1419.65 731.26Z" fill="#ffffff" opacity="1" stroke-width="4" stroke="none"></path><path d="M749.59 606.83L979.26 454.45 780.27 488.75C779.47 488.85 778.76 489.35 778.26 490.05L764.13 511.08 755.71 536.83 747.99 605.83C747.89 606.73 748.89 607.34 749.59 606.83Z" fill="#ffa0dc" opacity="1" stroke-width="4" stroke="none"></path><path d="M755.21 392.69L749.49 399.43 736.16 422.46 730.34 451.73C730.04 453.14 731.15 454.55 732.65 454.55L860.37 456.66 757.71 391.48C757.21 391.18 756.61 391.18 756.01 391.38 755.71 391.38 755.31 392.49 755.21 392.69Z" fill="#3c2c5b" opacity="1" stroke-width="4" stroke="none"></path><path d="M999.11 409.38L946.28 190.11H864.07L855.75 192.22 802.52 236.88 802.22 237.48C801.82 238.19 802.02 238.99 802.62 239.49L999.11 409.38Z" fill="#3c2c5b" opacity="1" stroke-width="4" stroke="none"></path><path d="M1414.73 235.97C1411.43 210.53 1388.47 190.11 1363.01 190.11L1185.27 190.01 1117.6 394.6 1414.73 235.97Z" fill="#3c2c5b" opacity="1" stroke-width="4" stroke="none"></path><path d="M1428.87 370.86L1418.95 276.81 1265.77 385.24 1428.87 370.86Z" fill="#3c2c5b" opacity="1" stroke-width="4" stroke="none"></path><path d="M1149.28 481.61L1373.13 656.12C1373.33 656.22 1373.53 656.12 1373.63 655.92L1390.47 545.58C1390.47 545.58 1390.47 545.58 1390.47 545.48L1387.07 511.88C1387.07 511.78 1386.97 511.68 1386.77 511.58L1149.48 481C1149.18 481 1148.98 481.4 1149.28 481.61Z" fill="#ffa0dc" opacity="1" stroke-width="4" stroke="none"></path><path d="M788.19 731.26H852.45L888.74 667.19 788.19 731.26Z" fill="#3c2c5b" opacity="1" stroke-width="4" stroke="none"></path><path d="M979.26 731.26L1022.27 505.65 1185.47 731.26H979.26Z" fill="#3c2c5b" opacity="1" stroke-width="4" stroke="none"></path><path d="M907.58 538.13C921.21 538.13 932.24 527.06 932.24 513.39 932.24 499.73 921.21 488.65 907.58 488.65 893.96 488.65 882.92 499.73 882.92 513.39 882.92 527.06 893.96 538.13 907.58 538.13Z" fill="#989898" opacity="1" stroke-width="4" stroke="none"></path><path d="M778.56 489.55L736.66 524.05 747.99 606.03C748.09 606.53 748.79 606.53 748.89 606.13L779.16 489.95C779.16 489.65 778.86 489.35 778.56 489.55Z" fill="#fa93d4" opacity="1" stroke-width="4" stroke="none"></path><path d="M802.02 238.19L804.73 190.01 864.07 190.11 803.73 239.09C803.02 239.7 802.02 239.09 802.02 238.19Z" fill="#cecece" opacity="1" stroke-width="4" stroke="none"></path><path d="M730.54 453.24L719.62 430.51 755.91 391.28C756.01 391.08 756.31 391.28 756.21 391.48L732.75 453.24C732.35 454.25 730.95 454.25 730.54 453.24Z" fill="#989898" opacity="1" stroke-width="4" stroke="none"></path><path d="M1373.53 656.02L1407.32 618.6 1386.97 511.88C1386.97 511.78 1386.77 511.78 1386.77 511.88L1373.53 656.02Z" fill="#fa93d4" opacity="1" stroke-width="4" stroke="none"></path></g><g><path d="M1329.18 500.27C1330.21 495.1 1330.49 492.1 1332.18 487.12 1335.94 476.13 1341.96 465.98 1349.85 457.52 1361.59 444.74 1363.75 437.13 1363.47 433 1363.47 431.59 1363 430.27 1362.16 429.15 1368.26 419.47 1361.97 413.74 1361.22 413.08 1361.4 410.07 1360.84 407.82 1359.53 406.41 1358.21 405.09 1356.42 404.44 1354.55 404.53 1352.95 404.53 1351.26 404.81 1349.75 405.37 1348.63 404.15 1346.94 403.5 1345.24 403.5 1339.7 403.5 1331.53 409.04 1320.81 420.13 1313.86 427.27 1308.04 434.5 1306.63 436.29 1306.44 424.92 1303.9 418.62 1299.02 417.68 1298.92 417.68 1298.83 417.68 1298.73 417.68 1295.73 417.68 1292.35 429.15 1287.74 444.93 1284.92 454.51 1281.73 464.94 1278.16 474.62V475.19L1293.29 497.92 1325.32 502.43H1328.14L1329.18 500.27Z" fill="#a15842" opacity="1" stroke-width="4" stroke="none"></path><path d="M1199.7 436.85L1202.71 436.66V436.47C1205.06 424.07 1208.72 404.81 1210.41 395.51L1211.26 390.72C1213.14 380.38 1216.05 354.92 1201.49 341.95 1192.75 334.15 1182.7 338.85 1169.45 338.85 1162.59 338.85 1157.99 338.19 1151.6 340.73 1139.76 345.34 1129.99 346.56 1123.88 355.95 1121.53 359.52 1121.15 366.76 1119.37 372.11L1119.09 372.87 1118.43 374.65C1115.42 375.03 1110.44 376.06 1109.88 378.78 1109.03 382.17 1112.98 387.33 1113.83 388.27 1108.47 405.66 1108.56 415.05 1114.29 423.13 1117.96 428.21 1125.29 431.21 1134.03 431.21 1137.31 431.31 1140.6 430.74 1143.7 429.71L1142.58 436.85 1171.99 458.18 1199.7 436.85Z" fill="#a15842" opacity="1" stroke-width="4" stroke="none"></path><path d="M1143.7 429.71L1142.58 436.85H1153.48L1157.14 429.52C1157.8 428.21 1157.23 426.7 1155.92 426.05 1155.26 425.67 1154.42 425.67 1153.66 426.05 1150.56 427.45 1147.18 428.68 1143.7 429.71Z" fill="#222020" opacity="0.3" stroke-width="4" stroke="none"></path><path d="M1353.23 976.73C1353.42 976.64 1353.61 976.55 1353.79 976.64 1353.89 976.64 1354.08 976.64 1354.17 976.64 1354.26 976.64 1354.36 976.64 1354.55 976.64 1356.14 976.64 1360.18 977.86 1360.75 976.36L1365.54 966.68C1367.79 960.57 1370.99 962.73 1377 960.2L1392.6 957.19 1397.48 937.65C1395.23 927.41 1392.5 918.2 1389.31 908.33 1389.31 908.24 1389.22 908.14 1389.12 908.05L1388.09 907.2 1312.55 938.21 1312.83 941.69C1315.74 946.67 1317.34 950.52 1318.75 953.24L1319.41 954.09 1321 954.37 1338.38 952.4C1339.14 952.02 1339.42 949.67 1340.26 949.58L1342.14 949.39C1346.18 949.39 1346.18 950.24 1346.47 954.28L1350.6 973.45C1350.69 974.95 1351.63 976.26 1353.04 976.73H1353.23Z" fill="#a15842" opacity="1" stroke-width="4" stroke="none"></path><path d="M1165.41 1005.77C1166.44 1005.77 1167.48 1005.39 1168.32 1004.64L1177.15 995.24C1181.57 990.45 1187.86 987.82 1194.35 987.91L1221.03 989.23 1221.88 986.98C1223.47 976.92 1224.04 967.34 1224.79 955.03L1224.04 954.09 1146.62 947.98 1141.73 955.31C1142.67 962.83 1143.33 967.15 1143.33 969.41L1145.3 972.51 1161.37 970.34C1162.21 970.34 1162.97 970.44 1163.81 970.72 1165.78 971.38 1167.38 972.79 1168.23 974.57 1169.17 976.36 1169.26 978.52 1168.6 980.49L1161.84 1000.69C1161.37 1002.1 1161.74 1003.7 1162.87 1004.64 1163.53 1005.39 1164.47 1005.67 1165.41 1005.77Z" fill="#a15842" opacity="1" stroke-width="4" stroke="none"></path><path d="M1036.97 489.09L1033.02 484.02C1014.23 464.1 1002.01 458.65 997.5 455.92 989.61 451.04 971.67 441.74 960.77 441.74 959.55 441.74 958.32 441.83 957.2 442.11 955.32 442.49 953.72 443.62 952.78 445.21 951.56 445.31 950.34 445.59 949.21 446.06 946.77 447.09 945.26 449.53 945.45 452.17 945.55 453.76 945.83 455.45 946.49 456.96 945.45 458.27 944.89 459.87 944.89 461.56 944.98 469.36 955.88 478.19 961.14 481.95 961.52 482.23 961.24 482.8 960.86 482.61 957.95 481.95 953.81 481.1 950.43 481.1 948.93 481.01 947.43 481.29 946.02 482.04 945.36 482.33 944.79 482.98 944.7 483.74 945.17 487.87 953.25 492.38 963.49 498.02L964.9 498.86C975.8 504.97 989.42 512.49 999.48 522.07L999.76 522.35 1036.97 489.09Z" fill="#a15842" opacity="1" stroke-width="4" stroke="none"></path><path d="M1128.2 396.26C1126.7 399.46 1122 399.83 1119.65 398.99" stroke="#222020" stroke-width="4" stroke-linecap="round" stroke-linejoin="round" opacity="1" fill="none"></path><path d="M1129.42 375.21C1128.01 375.21 1126.98 376.34 1126.98 377.66 1126.98 378.97 1128.11 380.1 1129.42 380.1 1130.83 380.1 1131.87 378.97 1131.87 377.66 1131.96 376.34 1130.83 375.21 1129.42 375.21Z" fill="#231f20" opacity="1" stroke-width="4" stroke="none"></path><path d="M1153.66 426.05C1153.66 426.05 1147.74 428.68 1143.7 429.71" stroke="#222020" stroke-width="4" stroke-linecap="round" stroke-linejoin="round" opacity="1" fill="none"></path><path d="M1172.17 396.35L1164.28 401.05" stroke="#222020" stroke-width="4" stroke-linecap="round" stroke-linejoin="round" opacity="1" fill="none"></path><path d="M1213.98 1022.4L1214.36 1022.12C1217.65 1010.75 1220.09 999.1 1221.88 987.35V986.98H1194.44C1187.77 986.98 1181.29 989.7 1176.68 994.59L1167.85 1003.98C1167.29 1004.64 1166.54 1005.02 1165.69 1005.02 1165.5 1005.02 1165.31 1005.02 1165.22 1004.92 1165.03 1004.92 1164.84 1004.83 1164.66 1004.83 1163.9 1004.55 1163.25 1003.98 1162.87 1003.32 1162.5 1002.57 1162.5 1001.73 1162.78 1000.98L1169.54 980.77C1169.82 979.83 1170.01 978.89 1169.92 977.96 1169.92 973.26 1166.07 969.41 1161.37 969.41H1143.33V969.97C1142.67 982.94 1138.91 988.38 1132.05 994.02 1129.23 996.28 1126.23 998.34 1123.13 1000.13 1121.34 1001.26 1119.46 1002.38 1117.49 1003.7 1109.6 1008.12 1104.05 1012.63 1100.01 1017.98 1099.17 1019.2 1098.23 1020.61 1097.57 1021.83L1097.66 1022.68 1213.98 1022.3V1022.4Z" fill="#61ccff" opacity="1" stroke-width="4" stroke="none"></path><path d="M1401.52 983.5L1403.5 976.36C1402.28 963.2 1400.4 950.61 1397.58 937.84L1397.48 937.55 1397.2 937.65 1374.56 947.61C1368.45 950.33 1363.66 955.41 1361.4 961.7L1356.99 973.82C1356.61 974.95 1355.58 975.7 1354.45 975.79H1354.17C1352.57 975.79 1351.26 974.57 1351.07 973.07L1349.19 951.93V951.74C1349.1 950.9 1348.91 950.14 1348.53 949.39 1347.22 946.29 1344.12 944.32 1340.83 944.32 1339.7 944.22 1338.48 944.51 1337.45 945.07L1318.84 953.06C1318.75 953.15 1318.65 953.24 1318.75 953.34 1319.12 954 1320.06 956.06 1320.53 957 1325.23 969.12 1325.32 977.86 1321.1 986.41 1318.28 991.96 1315.08 997.4 1311.51 1002.48 1308.32 1007.27 1305.69 1011.22 1304.18 1015.44 1303.62 1017.14 1303.24 1018.55 1302.87 1020.33 1302.87 1020.42 1302.87 1020.42 1302.87 1020.52L1303.53 1021.27 1303.71 1021.74 1401.52 983.5Z" fill="#61ccff" opacity="1" stroke-width="4" stroke="none"></path><path d="M1388.84 908.24C1389.03 908.14 1389.12 907.96 1389.03 907.77L1387.62 903.63C1384.05 893.02 1381.04 886.53 1376.06 876.57 1370.61 865.49 1364.32 854.78 1357.08 844.82 1347.59 831.57 1338.29 820.29 1330.77 811.27L1330.21 810.52C1319.41 797.46 1310.95 787.13 1306.63 777.54 1304.56 773.03 1302.59 768.43 1300.61 763.92 1292.06 744.56 1273.46 728.12 1266.69 708.2L1261.25 698.9C1246.49 655.21 1234.66 630.31 1200.92 601.18L1150 594.51V594.79C1150 605.88 1187.77 739.49 1229.02 811.93 1237.94 827.43 1249.69 844.44 1260.96 860.51 1266.79 868.59 1271.58 875.73 1274.59 880.33 1277.03 884 1285.58 897.25 1295.26 912.75 1296.76 915.19 1298.26 917.63 1299.67 919.89 1304.75 928.16 1309.16 935.39 1312.45 941.12L1312.73 941.5 1388.84 908.24Z" fill="#61ccff" opacity="1" stroke-width="4" stroke="none"></path><path d="M1265.94 759.69C1296.95 759.69 1277.69 705.1 1277.69 705.1L1276.56 701.91C1261.81 658.22 1249.88 624.39 1216.15 595.26L1150 594.51V594.79C1150 605.88 1187.77 739.49 1229.02 811.93 1230.9 815.22 1232.96 818.51 1235.03 821.89 1260.31 804.79 1243.39 751.23 1243.39 751.23 1243.39 751.23 1257.49 759.69 1265.94 759.69Z" fill="#0098e1" opacity="0.3" stroke-width="4" stroke="none"></path><path d="M1224.79 955.03V954.47C1225.17 946.67 1225.17 938.77 1225.17 930.98 1224.88 914.72 1223.57 898.47 1221.22 882.4 1219.62 871.78 1217.37 861.64 1214.45 849.51L1214.08 847.82C1210.51 832.41 1206.75 816.54 1205.15 797.84 1203.18 775.01 1207.13 753.02 1211.35 729.81L1211.92 726.9C1219.43 686.4 1228.83 675.32 1206.75 625.99L1178.84 629.46 1163.34 617.53C1160.24 629.65 1117.3 641.4 1115.52 685.75 1114.01 722.67 1114.86 766.83 1120.97 811.09 1122.28 820.39 1124.82 837.77 1127.54 856.47 1130.93 878.83 1135.25 907.58 1138.54 931.26 1140.04 941.97 1140.98 949.02 1141.64 954.75L1141.73 955.31 1224.79 955.03Z" fill="#61ccff" opacity="1" stroke-width="4" stroke="none"></path><path d="M1208.44 821.98C1207.03 814.37 1205.81 806.29 1205.06 797.74 1203.09 774.91 1207.03 752.93 1211.26 729.72L1211.82 726.81C1219.34 686.31 1213.8 668.08 1191.62 618.75L1142.76 643.18C1141.92 779.42 1192.66 817.94 1208.44 821.98Z" fill="#0098e1" opacity="0.3" stroke-width="4" stroke="none"></path><path d="M1323.82 978.33L1337.16 982.18" stroke="#353839" stroke-width="4" stroke-linecap="round" stroke-linejoin="round" opacity="1" fill="none"></path><path d="M1320.91 986.98L1330.4 993.55" stroke="#353839" stroke-width="4" stroke-linecap="round" stroke-linejoin="round" opacity="1" fill="none"></path><path d="M1136.94 989.23L1146.62 996.93" stroke="#353839" stroke-width="4" stroke-linecap="round" stroke-linejoin="round" opacity="1" fill="none"></path><path d="M1130.08 995.53L1136.19 1005.02" stroke="#353839" stroke-width="4" stroke-linecap="round" stroke-linejoin="round" opacity="1" fill="none"></path><path d="M946.49 456.96L982 479.13" stroke="#222020" stroke-width="4" stroke-linecap="round" stroke-linejoin="round" opacity="1" fill="none"></path><path d="M952.78 445.21L990.36 468.51" stroke="#222020" stroke-width="4" stroke-linecap="round" stroke-linejoin="round" opacity="1" fill="none"></path><path d="M1404.34 991.39C1404.34 986.51 1404.16 982 1403.59 977.3L1403.5 976.36 1302.77 1020.52 1302.49 1021.46C1302.49 1021.55 1302.49 1021.55 1302.49 1021.65 1302.4 1022.49 1301.37 1029.54 1304 1034.99L1404.34 991.39Z" fill="#ffffff" opacity="1" stroke-width="4" stroke="none"></path><path d="M1210.13 1035.08C1211.64 1031.42 1213.7 1023.99 1213.7 1023.99L1214.36 1022.12C1214.36 1022.02 1214.27 1021.83 1214.17 1021.83H1097.57L1097.48 1022.02C1095.5 1025.97 1094.56 1030.38 1094.66 1034.8V1035.08H1209.85 1210.13Z" fill="#ffffff" opacity="1" stroke-width="4" stroke="none"></path><path d="M1217.37 785.15C1221.6 785.25 1225.54 783.27 1227.98 779.89 1240.1 764.2 1230.05 716.28 1226.2 700.12 1226.01 699.37 1227.04 698.99 1227.42 699.65 1234.94 711.77 1255.42 743.44 1269.61 753.21 1283.89 762.98 1294.88 764.01 1298.92 764.01 1299.39 764.01 1299.96 764.01 1300.43 763.92H1300.71L1300.61 763.73C1291.5 742.59 1284.73 722.67 1278.72 705.1L1277.59 701.91C1262.84 658.4 1251.1 624.02 1217.74 594.89L1226.57 570.18C1229.11 572.71 1254.39 596.58 1277.03 596.58 1278.35 596.58 1279.76 596.49 1281.07 596.3 1309.16 592.54 1320.63 555.24 1329.18 500.27V500.18L1278.16 474.62 1266.04 505.44C1248.56 476.97 1238.88 467.57 1232.4 462.5 1215.68 449.53 1206.47 447.84 1204.12 447.75L1171.23 439.95 1138.07 447.75C1109.32 451.32 1098.23 473.02 1087.42 492.66 1078.68 508.54 1071.64 522.45 1070.6 524.42 1070.32 524.04 1069.66 523.29 1068.73 522.16 1063.18 515.4 1046.27 494.92 1033.12 484.11L1033.02 484.02 993.37 525.64 993.46 525.73C993.56 525.83 1002.95 538.89 1015.17 552.98 1026.44 566.04 1042.42 582.58 1054.63 587.75 1064.12 591.79 1072.58 593.67 1080.28 593.67 1099.64 593.67 1111.38 581.08 1121.25 567.36L1124.91 597.89C1121.44 613.77 1117.21 646.94 1115.61 685.46V685.56 685.65C1115.8 685.84 1130.46 707.92 1149.53 731.03 1181.38 769.65 1200.83 781.21 1211.45 784.21 1213.33 784.87 1215.3 785.15 1217.37 785.15Z" fill="#ffc930" opacity="1" stroke-width="4" stroke="none"></path><path d="M1241.98 582.77C1236.25 578.82 1231.37 574.78 1226.57 570.18L1236.82 541.52C1237.1 540.49 1237.57 539.55 1238.6 539.83 1239.45 540.11 1239.35 540.49 1239.35 541.43 1238.32 569.52 1241.98 582.77 1241.98 582.77Z" fill="#f6c027" opacity="0.3" stroke-width="4" stroke="none"></path><path d="M1204.12 447.75L1205.81 436 1139.76 435.82 1138.07 447.75H1204.12Z" fill="#61ccff" opacity="1" stroke-width="4" stroke="none"></path><path d="M1200.08 441.55C1202.33 441.55 1204.68 441.17 1206.84 440.42 1212.39 438.45 1215.86 435.25 1217.27 430.93 1219.9 422.76 1213.89 412.99 1212.76 411.29 1214.74 411.01 1225.82 409.13 1228.55 398.05 1231.08 387.8 1221.31 380.57 1219.34 379.25 1226.01 376.72 1229.77 371.17 1229.11 364.5 1228.45 357.93 1223.29 350.6 1213.04 349 1215.96 336.03 1207.6 329.93 1204.96 328.33 1201.39 326.17 1197.35 324.95 1193.13 324.95 1187.58 325.04 1182.23 326.83 1177.72 330.02 1176.96 328.61 1172.27 320.72 1162.59 320.72 1149.53 320.72 1146.99 331.52 1146.62 333.21 1143.42 332.09 1140.04 331.52 1136.66 331.43 1129.99 331.43 1125.19 334.25 1122.94 339.6 1120.5 344.87 1120.87 350.97 1123.88 355.95 1127.92 362.53 1136.19 366.57 1146.33 367.13 1143.7 382.92 1154.79 389.59 1154.88 389.68L1154.98 389.78 1155.07 389.68C1155.26 389.5 1165.97 380.1 1175.74 380.1 1178.75 380.01 1181.76 381.13 1184.01 383.11 1186.55 385.17 1188.05 388.27 1188.15 391.56 1188.52 402.46 1175.65 415.52 1175.56 415.71L1175.46 415.8V415.9C1177.72 434.78 1189.65 441.55 1200.08 441.55Z" fill="#37ff00" opacity="1" stroke-width="4" stroke="none"></path><path d="M1124.91 597.89L1217.74 594.89" stroke="#f6c027" stroke-width="4" stroke-linecap="round" stroke-linejoin="round" opacity="1" fill="none"></path><path d="M1070.51 524.8L1072.39 542.65" stroke="#f6c027" stroke-width="4" stroke-linecap="round" stroke-linejoin="round" opacity="1" fill="none"></path><path d="M1121.25 567.36L1137.03 543.21" stroke="#f6c027" stroke-width="4" stroke-linecap="round" stroke-linejoin="round" opacity="1" fill="none"></path><path d="M1226.57 570.18L1238.13 537.95" stroke="#f6c027" stroke-width="4" stroke-linecap="round" stroke-linejoin="round" opacity="1" fill="none"></path><path d="M1266.04 505.44L1278.16 532.5" stroke="#f6c027" stroke-width="4" stroke-linecap="round" stroke-linejoin="round" opacity="1" fill="none"></path><path d="M1306.25 436.66L1302.49 441.74" stroke="#222020" stroke-width="4" stroke-linecap="round" stroke-linejoin="round" opacity="1" fill="none"></path><path d="M1349.57 405.47C1342.05 412.05 1321.38 435.54 1321.38 435.54" stroke="#222020" stroke-width="4" stroke-linecap="round" stroke-linejoin="round" opacity="1" fill="none"></path><path d="M1360.84 412.99C1351.45 421.44 1331.71 443.05 1331.71 443.05" stroke="#222020" stroke-width="4" stroke-linecap="round" stroke-linejoin="round" opacity="1" fill="none"></path><path d="M1362.16 429.15C1357.46 434.78 1340.73 451.98 1340.73 451.98" stroke="#222020" stroke-width="4" stroke-linecap="round" stroke-linejoin="round" opacity="1" fill="none"></path><path d="M1278.16 474.62L1329.18 500.27" stroke="#f6c027" stroke-width="4" stroke-linecap="round" stroke-linejoin="round" opacity="1" fill="none"></path><path d="M1033.02 484.02L993.37 525.64" stroke="#f6c027" stroke-width="4" stroke-linecap="round" stroke-linejoin="round" opacity="1" fill="none"></path><path d="M1121.25 567.36L1136.84 543.49C1138.35 541.14 1141.45 540.49 1143.8 541.99 1144.83 542.65 1145.49 543.59 1145.86 544.81 1149.91 558.43 1157.89 582.39 1167.48 596.49L1124.91 597.89 1121.25 567.36Z" fill="#f6c027" opacity="0.3" stroke-width="4" stroke="none"></path></g><g><path d="M709.1 761H894.4V1032H709.1L684.9 906.6 709.1 761Z" fill="#ffc930" opacity="1" stroke-width="4" stroke="none"></path><path d="M709.1 761H605V1032H709.1V761Z" fill="#ff4f32" opacity="1" stroke-width="4" stroke="none"></path><path d="M688.5 790.3H625.6V817H688.5V790.3Z" fill="#3c2c5b" opacity="1" stroke-width="4" stroke="none"></path><path d="M657.6 975.7C660.91 975.7 663.6 973.01 663.6 969.7 663.6 966.39 660.91 963.7 657.6 963.7 654.29 963.7 651.6 966.39 651.6 969.7 651.6 973.01 654.29 975.7 657.6 975.7Z" fill="#1f0e0c" opacity="1" stroke-width="4" stroke="none"></path><path d="M657.6 999.5C660.91 999.5 663.6 996.81 663.6 993.5 663.6 990.19 660.91 987.5 657.6 987.5 654.29 987.5 651.6 990.19 651.6 993.5 651.6 996.81 654.29 999.5 657.6 999.5Z" fill="#1f0e0c" opacity="1" stroke-width="4" stroke="none"></path><path d="M672.8 834.9V849.6" stroke="#000000" stroke-width="4" stroke-linecap="round" stroke-linejoin="round" opacity="1" fill="none"></path><path d="M657 834.9V849.6" stroke="#000000" stroke-width="4" stroke-linecap="round" stroke-linejoin="round" opacity="1" fill="none"></path><path d="M641.3 834.9V849.6" stroke="#000000" stroke-width="4" stroke-linecap="round" stroke-linejoin="round" opacity="1" fill="none"></path><path d="M796 953H863.5" stroke="#000000" stroke-width="4" stroke-linecap="round" stroke-linejoin="round" opacity="1" fill="none"></path><path d="M796 975H863.5" stroke="#000000" stroke-width="4" stroke-linecap="round" stroke-linejoin="round" opacity="1" fill="none"></path><path d="M796 997H863.5" stroke="#000000" stroke-width="4" stroke-linecap="round" stroke-linejoin="round" opacity="1" fill="none"></path><path d="M657.6 946.3C666.27 946.3 673.3 939.27 673.3 930.6 673.3 921.93 666.27 914.9 657.6 914.9 648.93 914.9 641.9 921.93 641.9 930.6 641.9 939.27 648.93 946.3 657.6 946.3Z" fill="#3c2c5b" opacity="1" stroke-width="4" stroke="none"></path></g><g><path d="M1468.13 761.01H1462.27V753.95C1462.27 749.05 1458.28 745.07 1453.38 745.07H1439.32C1434.42 745.07 1430.43 749.05 1430.38 753.95V761.01H1424.68C1416.54 761.01 1409.93 767.61 1409.93 775.76V871.59C1409.93 879.73 1416.54 886.34 1424.68 886.34H1468.13C1476.27 886.34 1482.88 879.73 1482.88 871.59V775.76C1482.88 767.61 1476.27 761.01 1468.13 761.01Z" fill="#ff4f32" opacity="1" stroke-width="4" stroke="none"></path><path d="M1429.86 814.54H1462.89C1467.28 814.54 1470.86 818.12 1470.86 822.51V866.64C1470.86 871.02 1467.28 874.61 1462.89 874.61H1429.86C1425.48 874.61 1421.89 871.02 1421.89 866.64V822.51C1421.89 818.12 1425.48 814.54 1429.86 814.54Z" fill="#3c2c5b" opacity="1" stroke-width="4" stroke="none"></path><path d="M1430.38 761.01H1462.32" stroke="#cd2a10" stroke-width="4" stroke-linecap="round" stroke-linejoin="round" opacity="1" fill="none"></path></g><g><path d="M446.7 1028.58C444.07 1023.58 441.53 1018.83 439.16 1013.92 435.76 1006.71 433.31 1001.2 431.19 996.2L431.1 996.03H431.19C434.49 994.84 443.65 991.96 456.45 991.96 460.95 991.96 465.36 992.3 469.59 993.06H469.68L474.94 1015.27 446.96 1029.18 446.7 1028.58Z" fill="#525252" opacity="1" stroke-width="4" stroke="none"></path><path d="M239.99 556.41C238.47 548.19 236.43 537.59 234.91 529.03 233.64 522.24 232.53 506.81 232.02 503.84 232.02 503.84 284.25 456.11 290.19 458.48 298.24 461.62 303.75 466.2 307.74 472.47 311.47 478.41 313.84 485.87 316.89 494.94L317.66 497.23C318.59 497.32 325.2 498.25 325.88 501.13 326.65 504.18 322.66 509.44 322.07 510.12 327.32 526.65 327.24 535.64 321.64 543.35 318.25 548.1 311.21 550.99 302.91 550.99 299.34 550.99 296.04 550.48 293.41 549.46L295.61 563.02 239.99 556.41Z" fill="#cf5934" opacity="1" stroke-width="4" stroke="none"></path><path d="M290.19 562.94L281.45 543.78C288.15 547.51 293.41 549.46 293.41 549.46L294.94 558.7 290.19 562.94Z" fill="#030202" opacity="0.2" stroke-width="4" stroke="none"></path><path d="M316.73 520.46C314.52 521.23 310.03 520.72 308.59 517.83" stroke="#030202" stroke-width="4" stroke-linecap="round" stroke-linejoin="round" opacity="1" fill="none"></path><path d="M307.48 502.32C308.8 502.32 309.86 501.26 309.86 499.94 309.86 498.63 308.8 497.57 307.48 497.57 306.17 497.57 305.11 498.63 305.11 499.94 305.11 501.26 306.17 502.32 307.48 502.32Z" fill="#010005" opacity="1" stroke-width="4" stroke="none"></path><path d="M275.77 520.46L268.31 515.97" stroke="#030202" stroke-width="4" stroke-linecap="round" stroke-linejoin="round" opacity="1" fill="none"></path><path d="M210.4 487.23C226.28 487.23 239.15 474.36 239.15 458.48 239.15 442.61 226.28 429.74 210.4 429.74 194.53 429.74 181.66 442.61 181.66 458.48 181.66 474.36 194.53 487.23 210.4 487.23Z" fill="#d51a8e" opacity="1" stroke-width="4" stroke="none"></path><path d="M303.92 970.17L301.55 964.91V964.83C302.57 955.5 304.09 945.92 305.96 936.34L310.2 923.62 394.81 924.98 392.69 936.51C390.32 944.56 388.62 950.58 388.2 955.41L365.99 999.59 303.92 970.17Z" fill="#cf5934" opacity="1" stroke-width="4" stroke="none"></path><path d="M298.84 1029.09V1028.92C298.67 1023.16 298.67 1017.48 298.67 1011.97 298.67 1005.27 298.92 998.74 299.17 992.47V992.3H299.34C311.89 994.16 323.59 999.5 333.17 1007.9L333.26 1007.98 330.63 1029.09H298.84Z" fill="#525252" opacity="1" stroke-width="4" stroke="none"></path><path d="M341.74 1017.56C330.29 1003.49 316.05 995.18 299.34 992.72H299.17V992.13C299.34 989.67 299.43 987.21 299.6 984.92 300.02 978.56 301.29 966.69 301.46 964.91 301.46 964.83 301.55 964.74 301.72 964.74 333.77 966.27 354.88 983.56 359.29 987.46 359.46 987.63 359.71 987.46 359.63 987.29L356.66 968.73C356.15 965.67 356.83 962.54 358.69 960.08 360.47 957.53 363.19 955.84 366.24 955.33 366.83 955.24 367.51 955.16 368.19 955.16H388.28C388.45 955.16 388.54 955.24 388.54 955.41 388.45 956.6 387.95 961.6 387.95 962.96 388.03 983.39 397.1 991.7 405.92 999.67 410.16 1003.49 414.14 1007.13 417.03 1011.97 418.04 1013.66 418.81 1015.44 419.49 1017.31L419.57 1017.56H341.74Z" fill="#cecece" opacity="1" stroke-width="4" stroke="none"></path><path d="M305.87 936.51V936.34C312.66 900.64 324.36 866.05 340.72 833.58L345.98 823.32C309.18 823.23 277.64 812.3 263.48 794.66 256.19 785.5 253.73 775.16 256.27 763.88 262.21 738.19 271.79 721.66 271.87 721.57L272.13 721.07 272.38 724.88C276.96 725.39 384.47 738.45 417.71 777.87 440 804.33 419.66 860.62 403.38 905.81 399.39 916.92 395.58 927.43 392.78 936.51H305.87Z" fill="#ffc930" opacity="1" stroke-width="4" stroke="none"></path><path d="M395.66 926.59C395.49 926.16 382.86 880.63 328.76 860.28L328.6 860.2 328.68 860.03C332.5 850.79 336.57 841.89 340.8 833.49 342.5 830.19 343.52 828.07 344.03 827.13 343.94 827.05 343.94 827.05 344.79 825.35V825.27L427.03 800.76V800.93C430.68 830.27 415.59 872.15 403.46 905.73 400.75 913.11 398.29 920.06 396.08 926.59L395.92 927.1 395.66 926.59Z" fill="#211800" opacity="0.2" stroke-width="4" stroke="none"></path><path d="M392.78 984.5L379.21 990.09" stroke="#525252" stroke-width="4" stroke-linecap="round" stroke-linejoin="round" opacity="1" fill="none"></path><path d="M400.49 994.92L389.05 1003.57" stroke="#525252" stroke-width="4" stroke-linecap="round" stroke-linejoin="round" opacity="1" fill="none"></path><path d="M392.02 936.59L306.04 936.42" stroke="#211800" stroke-width="4" stroke-linecap="round" stroke-linejoin="round" opacity="1" fill="none"></path><path d="M421.52 971.35C417.96 961.52 414.74 951.09 412.19 941.85L412.02 934.64 487.15 897.59 490.79 904.54C493 916.07 494.27 922.69 495.28 924.98L490.54 975.42 425.84 972.88 421.52 971.35Z" fill="#cf5934" opacity="1" stroke-width="4" stroke="none"></path><path d="M484.01 997.21C475.44 993.99 466.2 992.3 456.54 992.3 443.82 992.3 434.75 995.18 431.44 996.37L431.27 996.45 431.19 996.28C430.08 993.99 423.3 976.95 421.27 971.52L421.18 971.18 421.52 971.1C433.98 965.42 447.38 962.54 461.29 962.54 474.17 962.54 486.17 966.08 485.62 965.76L475.7 951.43C471.46 945.32 472.99 936.93 479.09 932.69 479.68 932.27 495.37 924.72 495.37 924.72 495.37 924.72 497.23 928.88 497.83 929.98 507.07 948.21 518.85 951.6 530.3 954.82 535.81 956.35 540.98 957.87 545.73 960.93 547.26 961.94 548.7 963.13 549.97 964.32L549.89 964.66 484.01 997.21Z" fill="#cecece" opacity="1" stroke-width="4" stroke="none"></path><path d="M412.45 942.7C406 918.45 401.77 899.03 399.65 881.06 397.7 864.69 397.36 850.53 397.44 832.98L274.16 833.32C257.8 833.32 239.65 830.44 227.45 818.57 218.71 810.09 214.81 798.31 213.29 786.52 212.01 776.77 212.01 766.77 214.47 757.35 217.19 747.1 217.27 738.53 221.51 730.65L229.23 718.69H317.57L321.39 721.49C322.75 721.74 346.91 726.15 375.06 733.78 423.13 746.84 442.04 758.37 449.42 765.75 469.26 786.18 474 813.06 480.62 850.19 481.72 856.3 482.82 862.66 484.09 869.27L484.94 873.85C487.06 885.13 489.01 895.89 490.79 904.88L412.45 942.7Z" fill="#ffc930" opacity="1" stroke-width="4" stroke="none"></path><path d="M403.46 904.8C398.03 876.56 397.53 857.32 397.61 833.58" stroke="#211800" stroke-width="4" stroke-linecap="round" stroke-linejoin="round" opacity="1" fill="none"></path><path d="M512.58 947.7L503.34 958.98" stroke="#525252" stroke-width="4" stroke-linecap="round" stroke-linejoin="round" opacity="1" fill="none"></path><path d="M523.35 953.29L517.33 966.27" stroke="#525252" stroke-width="4" stroke-linecap="round" stroke-linejoin="round" opacity="1" fill="none"></path><path d="M490.37 904.8L413.81 942.19" stroke="#211800" stroke-width="4" stroke-linecap="round" stroke-linejoin="round" opacity="1" fill="none"></path><path d="M403.29 595.07L403.46 591.77C416.77 577.69 431.78 562.09 442.72 554.46 459.25 542.93 488.76 531.74 498.59 531.74 501.73 531.74 503.25 532.67 503.34 534.54 503.42 539.71 496.13 544.2 485.96 550.39 484.94 550.99 483.84 551.66 482.74 552.34 484.01 552.6 485.28 553.78 486.04 555.39 487.23 558.02 486.81 561.07 484.77 563.53 486.89 564.21 488.33 565.48 489.01 567.35 489.77 569.64 489.26 572.35 487.65 574.73 489.18 576.08 490.03 577.95 490.11 580.15 490.2 583.46 488.5 586.68 486.72 588.29 484.01 591 481.38 593.21 476.89 593.21 475.78 593.21 474.6 593.04 473.24 592.78 467.98 599.4 461.37 603.89 454.59 605.33 453.74 606.69 452.47 609.49 450.6 613.39 449.16 616.36 447.47 620.09 445.43 624.16L443.73 625.34 403.29 595.07Z" fill="#cf5934" opacity="1" stroke-width="4" stroke="none"></path><path d="M215.58 752.01C169.45 735.48 168.43 701.99 172.76 674.69 175.13 659.34 181.07 639.08 188.95 619.15 196.24 600.75 204.04 585.66 209.3 579.9 221.09 566.92 239.49 563.7 241.44 563.45 241.27 562.6 241.1 561.75 240.93 560.82 240.67 559.38 240.33 557.77 239.99 556.07V555.9H294.6L295.87 563.36H297.99C320.2 563.36 339.87 574.22 358.19 596.52L378.62 619.83C379.89 618.31 390.57 605.5 403.46 591.6L403.55 591.51 445.43 624.16C426.95 660.44 408.46 681.56 390.57 686.64 387.52 687.49 384.3 687.91 380.99 687.91 356.24 687.91 331.14 664 328.43 661.38L321.3 721.4H229.31C221 733.95 215.83 751.59 215.83 751.84L215.75 752.01H215.58Z" fill="#61ccff" opacity="1" stroke-width="4" stroke="none"></path><path d="M229.31 721.4L219.05 683 218.88 683.08C213.71 685.79 212.44 693.51 210.91 702.41 208.79 715.3 206.08 731.32 189.8 737.51H189.72C196.16 743.11 204.55 748.03 215.58 752.01H215.75L215.83 751.84C215.83 751.59 221 733.95 229.31 721.4Z" fill="#081921" opacity="0.2" stroke-width="4" stroke="none"></path><path d="M290.87 721.4L317.83 651.46 328.43 661.38 321.3 721.4H290.87Z" fill="#081921" opacity="0.2" stroke-width="4" stroke="none"></path><path d="M229.23 721.32L213.96 664.51" stroke="#081921" stroke-width="4" stroke-linecap="round" stroke-linejoin="round" opacity="1" fill="none"></path><path d="M208.79 702.92L221.6 696.73" stroke="#081921" stroke-width="4" stroke-linecap="round" stroke-linejoin="round" opacity="1" fill="none"></path><path d="M328.34 661.12L314.18 646.88" stroke="#081921" stroke-width="4" stroke-linecap="round" stroke-linejoin="round" opacity="1" fill="none"></path><path d="M378.45 620.42L377.6 631.45" stroke="#081921" stroke-width="4" stroke-linecap="round" stroke-linejoin="round" opacity="1" fill="none"></path><path d="M483.33 551.92C477.39 551.92 467.31 553.95 463.49 556.24" stroke="#030202" stroke-width="4" stroke-linecap="round" stroke-linejoin="round" opacity="1" fill="none"></path><path d="M484.43 563.7C478.5 562.94 466.54 568.2 466.54 568.2" stroke="#030202" stroke-width="4" stroke-linecap="round" stroke-linejoin="round" opacity="1" fill="none"></path><path d="M487.4 574.81C483.58 574.05 475.44 575.57 470.19 579.3" stroke="#030202" stroke-width="4" stroke-linecap="round" stroke-linejoin="round" opacity="1" fill="none"></path><path d="M473.75 592.19L477.23 586.51" stroke="#030202" stroke-width="4" stroke-linecap="round" stroke-linejoin="round" opacity="1" fill="none"></path><path d="M292.9 549.29C289.09 547.85 286.2 546.41 286.2 546.41" stroke="#030202" stroke-width="4" stroke-linecap="round" stroke-linejoin="round" opacity="1" fill="none"></path><path d="M144.69 625.85C141.9 613.22 148.43 601.01 162.25 593.21 155.29 574.47 156.82 556.41 166.65 542.17 176.83 527.5 194.21 519.02 214.47 519.02 220.75 519.02 227.11 519.87 233.55 521.48 233.3 520.04 233.04 518.68 232.79 517.49 232.45 515.8 232.19 514.36 232.02 513.34L231.85 512.24C229.57 500.11 225.33 477.48 238.38 465.78 246.78 458.31 258.82 454.07 271.45 454.07 278.15 454.07 284.85 455.26 290.78 457.64 299.09 460.86 304.69 466.11 308.92 474.34 308.92 474.34 303.67 481.38 294 481.38 291.88 481.38 289.59 481.04 289.92 481.21 292.14 489.01 288.88 501.86 284.91 507.43L283.68 509 283.25 509.57C282.46 509.02 273.15 502.32 264.67 502.32 259.75 502.32 256.27 504.61 254.32 509.19 248.3 523.34 271.87 535.64 272.13 535.81H272.21V535.89C273.74 541.83 274.84 568.62 261.02 586.43 252.97 596.77 241.44 602.03 226.68 602.03 218.46 602.03 209.22 600.33 199.13 597.11 198.19 598.89 188.44 618.39 178.61 650.78 178.61 650.78 150.29 651.63 144.69 625.85Z" fill="#d51a8e" opacity="1" stroke-width="4" stroke="none"></path><path d="M340.89 833.32L417.62 832.64" stroke="#211800" stroke-width="4" stroke-linecap="round" stroke-linejoin="round" opacity="1" fill="none"></path><path d="M270.77 546.66C275.45 546.66 279.25 542.86 279.25 538.18 279.25 533.5 275.45 529.7 270.77 529.7 266.09 529.7 262.29 533.5 262.29 538.18 262.29 542.86 266.09 546.66 270.77 546.66Z" fill="#ffffff" opacity="1" stroke-width="4" stroke="none"></path><path d="M233.55 521.48C237.2 522.75 241.01 524.53 244.49 526.31" stroke="#d51a8e" stroke-width="4" stroke-linecap="round" stroke-linejoin="round" opacity="1" fill="none"></path><path d="M162.25 593.21C164.11 597.62 166.48 601.94 169.03 606.01" stroke="#d51a8e" stroke-width="4" stroke-linecap="round" stroke-linejoin="round" opacity="1" fill="none"></path><path d="M198.96 597.11C191.07 594.99 186.83 591.6 186.83 591.6" stroke="#d51a8e" stroke-width="4" stroke-linecap="round" stroke-linejoin="round" opacity="1" fill="none"></path><path d="M403.63 591.77L445.35 624.24" stroke="#081921" stroke-width="4" stroke-linecap="round" stroke-linejoin="round" opacity="1" fill="none"></path><path d="M497.4 1004C493.16 1001.2 488.67 998.91 483.92 997.21L483.58 997.04 549.63 964.06 549.72 964.15C552.77 967.03 555.23 970.34 557.01 974.15L557.09 974.32 497.4 1004Z" fill="#525252" opacity="1" stroke-width="4" stroke="none"></path><path d="M349.96 1029.09C347.42 1024.94 344.54 1020.95 341.48 1017.31L341.31 1017.05H419.4L419.49 1017.14C420.84 1020.95 421.27 1024.94 421.27 1028.92V1029.09H349.96Z" fill="#525252" opacity="1" stroke-width="4" stroke="none"></path></g><g><path d="M251.61 856.91L249.76 1000.34" stroke="#331e1a" stroke-width="4" stroke-linecap="round" stroke-linejoin="round" opacity="1" fill="none"></path><path d="M249.76 1000.34L285.94 1028.62" stroke="#331e1a" stroke-width="4" stroke-linecap="round" stroke-linejoin="round" opacity="1" fill="none"></path><path d="M249.76 1000.34L213.98 1028.62" stroke="#331e1a" stroke-width="4" stroke-linecap="round" stroke-linejoin="round" opacity="1" fill="none"></path><path d="M166.68 833.51H338.3C344.73 833.51 350 838.77 350 845.21 350 851.64 344.73 856.91 338.3 856.91H166.68C160.25 856.91 154.98 851.64 154.98 845.21 154.98 838.77 160.25 833.51 166.68 833.51Z" fill="#ff4f32" opacity="1" stroke-width="4" stroke="none"></path></g></svg>