<svg xmlns="http://www.w3.org/2000/svg" height="1000" width="1000" version="1.1" xmlns:xlink="http://www.w3.org/1999/xlink" xmlns:svgjs="http://svgjs.com/svgjs"><rect fill="#f3ebe9" width="1000" height="1000"></rect><g><path d="M579.42 515.88C578.99 514.4 578.62 512.98 578.25 511.75 574.81 499.57 571.92 491.44 569.15 483.57 567.42 478.7 565.82 474.09 564.1 468.67 562.56 463.63 561.39 458.58 560.34 453.41L560.1 452.36 534.37 455.07V455.19C534.31 457.22 551.36 509.97 557.51 528.74L554.56 529.42 554.62 529.54C554.68 529.73 560.16 549.91 562.07 554.16 563.61 557.61 565.88 557.97 566.75 557.97 566.87 557.97 566.93 557.97 567.05 557.97 567.91 559.33 569.39 560.13 570.99 560.07 571.55 560.07 572.1 559.94 572.65 559.82 572.96 560.19 574.19 561.67 575.92 561.67 576.1 561.67 576.22 561.67 576.35 561.67 579.42 561.18 579.55 558.04 579.55 557.36 580.53 557.24 581.39 556.74 581.95 555.94 583.55 553.6 582.99 548.5 581.58 541.97 582.25 542.34 582.87 542.53 583.42 542.53 584.16 542.53 584.78 542.16 585.02 541.36 586.07 539.2 582.25 525.72 579.42 515.88Z" fill="#c65a42" opacity="1" stroke-width="4" stroke="none"></path><path d="M487.91 384.05V383.98C487.47 375.37 490.24 355.18 490.12 347.43 489.94 330.26 495.72 327.36 511.11 326.13 512.65 326.01 513.2 324.04 514.68 324.04 526.25 324.04 534.8 320.96 539.85 328.9 542.8 333.52 543.42 339.55 544.1 345.89 544.4 348.78 544.71 351.86 545.27 354.94L545.39 355.74C546.62 362.44 547.85 369.4 544.03 375 540.9 379.55 534.68 380.54 530 380.54 528.03 380.54 526.06 380.35 524.09 380.05V406.88L487.91 384.05Z" fill="#c65a42" opacity="1" stroke-width="4" stroke="none"></path><path d="M508.65 362.33L505.2 359.8" stroke="#000000" stroke-width="4" stroke-linecap="round" stroke-linejoin="round" opacity="1" fill="none"></path><path d="M524.03 380.05C521.51 379.25 519.35 378.14 516.83 377.04" stroke="#000000" stroke-width="4" stroke-linecap="round" stroke-linejoin="round" opacity="1" fill="none"></path><path d="M534.56 354.08L535.05 355.43C535.3 356.17 535.17 357.03 534.62 357.65L534.5 357.83" stroke="#000000" stroke-width="4" stroke-linecap="round" stroke-linejoin="round" opacity="1" fill="none"></path><path d="M536.53 364.23C535.66 364.91 532.83 365.22 531.05 363.31" stroke="#000000" stroke-width="4" stroke-linecap="round" stroke-linejoin="round" opacity="1" fill="none"></path><path d="M527.05 354.7C527.93 354.7 528.65 353.98 528.65 353.1 528.65 352.21 527.93 351.5 527.05 351.5 526.16 351.5 525.45 352.21 525.45 353.1 525.45 353.98 526.16 354.7 527.05 354.7Z" fill="#000000" opacity="1" stroke-width="4" stroke="none"></path><path d="M539.73 353.52C540.61 353.52 541.33 352.81 541.33 351.92 541.33 351.04 540.61 350.32 539.73 350.32 538.84 350.32 538.13 351.04 538.13 351.92 538.13 352.81 538.84 353.52 539.73 353.52Z" fill="#000000" opacity="1" stroke-width="4" stroke="none"></path><path d="M551.73 725.75L550.5 724.77C546.99 711.85 544.65 698.67 543.6 685.32V684.52L569.02 632.27 596.59 685.44C597.27 694.67 597.89 701.01 599.12 706.86L583.79 717.08C580.96 717.08 577.33 709.51 577.33 712.34 577.33 712.71 579.85 714.92 579.92 715.29L576.47 724.83 551.73 725.75Z" fill="#c65a42" opacity="1" stroke-width="4" stroke="none"></path><path d="M452.39 724.89L451.72 724.59C451.04 719.35 449.44 706.18 449.44 695.35 449.44 691.47 449.5 688.09 449.69 684.64L479.17 632.76 497.08 683.66 497.75 685.07C495.41 695.47 494.68 701.57 494.74 706.86V706.98H475.41C472.58 706.98 470.3 709.26 470.3 712.09 470.3 712.46 470.36 712.83 470.43 713.2L473.01 724.83 453.13 725.69 452.39 724.89Z" fill="#c65a42" opacity="1" stroke-width="4" stroke="none"></path><path d="M578.38 684.64L569.45 655.03C569.33 654.6 568.65 654.6 568.53 655.09L561.94 684.7 543.6 685.31 543.54 684.7C542.87 675.4 542.43 666.23 542.43 656.82 542.43 651.95 542.5 647.59 542.56 643.77 542.68 637.68 542.74 632.81 542.43 628.88 541.33 613.49 536.77 600.2 526.8 583.09 524.52 579.21 522.31 575.27 520.22 571.33 519.29 580.81 518.31 589.42 517.39 596.93 515.05 613.49 511.66 629.92 507.23 646.11 506.25 649.86 505.32 653.37 504.52 656.88 503.41 661.62 502.37 666.11 501.26 670.42 500.03 675.47 498.86 680.27 497.88 684.64L497.75 685.07 482.67 684.76 475.84 655.89C475.72 655.52 475.23 655.46 475.04 655.83L463.72 684.64H449.69V684.51C450.24 673.8 451.59 666.54 453.07 658.79L453.44 656.69C454.42 651.28 455.47 646.35 456.46 641.62 458.42 632.32 460.21 623.58 461.69 612.2 463.23 600.26 462.73 586.16 462.24 571.27 461.32 541.54 460.21 507.88 474.61 481.35L474.67 481.29H545.76L545.82 481.35C546.19 482.15 583.98 564.07 589.95 604.75 593.03 625.12 593.52 636.26 594.26 653.06L594.44 656.82C594.99 663.46 595.43 669.68 595.79 675.22 596.04 678.54 596.35 682.48 596.59 685.44L578.38 684.64Z" fill="#ffc930" opacity="1" stroke-width="4" stroke="none"></path><path d="M467.16 499.94C469.07 493.47 470.86 488.61 473.93 482.7L474.86 481.23H519.79V481.47C506.43 483.32 493.44 487.01 481.14 492.55 472.27 496.55 467.41 500.06 467.41 500.06L467.1 500.24 467.16 499.94Z" fill="#000000" opacity="0.3" stroke-width="4" stroke="none"></path><path d="M543.6 685.32C542.87 676.03 542.56 666.98 542.56 657.56 542.56 652.7 542.62 648.33 542.68 644.51 542.8 638.42 542.87 633.56 542.56 629.62 541.45 614.23 537.2 600.88 527.23 583.77 525.02 580.01 522.62 575.89 520.52 571.89L523.36 525.55 523.42 525.48C523.85 525.18 524.34 525.05 524.83 525.05 525.76 525.05 527.17 525.55 528.53 527.95 530.62 531.64 552.53 594.23 552.53 633.25 552.53 670.98 553.76 684.7 553.76 684.83V685.01L543.6 685.32Z" fill="#000000" opacity="0.3" stroke-width="4" stroke="none"></path><path d="M520.28 571.46C521.57 558.35 522.49 537.18 523.36 524.75" stroke="#000000" stroke-width="4" stroke-linecap="round" stroke-linejoin="round" opacity="1" fill="none"></path><path d="M539.85 329.02C534.8 321.09 526.74 317.27 515.17 317.27 513.69 317.27 512.22 317.33 510.68 317.45 506.55 317.76 502.86 318.81 499.72 320.47 500.4 318.25 500.77 315.85 500.77 313.39 500.77 299.91 489.81 288.96 476.33 288.96 462.86 288.96 451.9 299.91 451.9 313.39 451.9 326.87 462.86 337.83 476.33 337.83 480.58 337.83 484.58 336.72 488.03 334.87 486.92 338.38 486.3 342.44 486.37 346.81 486.37 347.8 486.37 348.35 486.43 349.15 486.49 349.83 486.49 350.63 486.55 352.04 483.1 351.18 479.47 350.81 475.9 350.81 463.59 350.81 446.36 355.12 434.11 375.86 428.14 386.45 426.91 399.37 430.73 411.43 433.31 419.56 437.87 425.96 442.67 428.3 441.19 432.67 440.45 437.22 440.51 441.84 440.64 448.67 442.98 457.96 453.19 463.38 457.19 465.47 461.69 466.58 466.18 466.58 482.18 466.58 498.06 452.67 499.66 437.59 502.06 413.22 489.81 392.29 488.09 390.2 489.75 389.59 504.28 371.98 504.28 371.98 504.15 371.86 490.61 361.77 496.03 353.34 497.63 350.81 499.78 349.52 502.49 349.52 508.4 349.52 514.86 355.74 514.92 355.8L514.99 355.86 515.05 355.8C519.35 351.37 518.43 345.46 518.19 344.23 519.97 344.97 521.82 345.4 523.72 345.46 526.06 345.46 527.91 344.6 529.08 343.06 530.49 341.15 530.74 338.32 529.88 334.99 533.02 336.72 535.73 337.58 538 337.58 541.33 337.58 542.5 335.73 542.56 335.67V335.61 335.55C542 333.27 541.08 331.06 539.85 329.02Z" fill="#c81e1e" opacity="1" stroke-width="4" stroke="none"></path><path d="M441.56 392.66C440.08 390.57 438.67 388.6 437.25 386.63 435.53 384.23 433.87 381.95 432.21 379.62 431.53 378.63 430.73 377.58 429.93 376.48 422.36 366.14 409.62 348.9 400.2 298.99 398.48 297.88 370.66 280.4 371.28 276.1 371.4 275.36 371.89 274.06 374.11 274.06 376.02 274.06 378.78 274.99 382.42 276.83L382.35 276.77C379.34 273.88 371.4 266.19 372.26 261.82 372.51 260.71 373.31 259.79 374.35 259.42 373.31 257.88 373.12 256.09 373.86 254.74 374.6 253.32 376.2 252.52 378.35 252.52 378.72 252.52 379.03 252.52 379.34 252.58 380.38 250.92 382.17 249.94 384.14 250 388.82 250 394.85 254.25 400.2 258 402.36 259.6 404.57 261.02 406.91 262.31 406.6 260.83 405 253.32 406.97 250.86 407.34 250.37 407.96 250.06 408.63 250.06 408.76 250.06 408.88 250.06 409 250.06 412.76 250.68 418.97 262.49 424.51 273.51 427.16 278.86 432.45 292.47 437.56 305.64 443.04 319.73 448.7 334.32 450.92 338.13 452.7 341.15 461.13 352.1 471.72 363.06L471.78 363.12 441.62 392.6 441.56 392.66Z" fill="#c65a42" opacity="1" stroke-width="4" stroke="none"></path><path d="M474.73 482.09C466.55 474.46 466.67 465.84 466.73 455.87 466.79 446.95 466.92 436.79 461.13 425.16 455.47 413.83 448.95 402.94 441.56 392.66L441.38 392.42 471.72 363.06 471.78 363.12C495.54 387.74 509.82 393.03 517.63 393.03 518 393.03 518.43 393.03 518.8 392.97 523.72 392.97 524.09 387.49 524.09 387.49 535.73 389.95 541.02 394.26 546.44 400.85 552.04 409.22 554.99 425.22 557.88 440.61 558.68 444.85 559.48 449.22 560.34 453.41V453.53L549.94 456.49C551.42 465.66 552.53 475.93 546.44 482.03L546.37 482.09H474.73Z" fill="#ffa0dc" opacity="1" stroke-width="4" stroke="none"></path><path d="M565.39 527.08C562.25 517.98 546.19 482.09 546.19 482.09 552.16 476.06 551.24 465.48 549.7 456.37 549.7 456.25 546.68 443.44 546.68 434.89V434.83L546.74 434.77C546.99 434.64 547.24 434.58 547.48 434.58 551.3 434.58 553.57 447.44 556.77 468.68 558.25 478.59 559.98 489.42 562.93 503.14 566.93 521.98 566.5 526.1 565.82 526.9 565.58 527.15 565.39 527.15 565.39 527.08Z" fill="#000000" opacity="0.3" stroke-width="4" stroke="none"></path><path d="M547.48 428.05C547.73 433.9 547.97 439.68 548.16 444.42 548.53 454.7 555.42 472.86 546.37 481.9H474.8" stroke="#2d2329" stroke-width="4" stroke-linecap="round" stroke-linejoin="round" opacity="1" fill="none"></path><path d="M441.38 392.42L471.72 363.06" stroke="#2d2329" stroke-width="4" stroke-linecap="round" stroke-linejoin="round" opacity="1" fill="none"></path><path d="M560.34 453.53L549.82 456.42" stroke="#2d2329" stroke-width="4" stroke-linecap="round" stroke-linejoin="round" opacity="1" fill="none"></path><path d="M406.91 262.31L408.94 269.39" stroke="#000000" stroke-width="4" stroke-linecap="round" stroke-linejoin="round" opacity="1" fill="none"></path><path d="M379.4 252.77C389.86 258.31 401.56 266.93 401.56 266.93" stroke="#000000" stroke-width="4" stroke-linecap="round" stroke-linejoin="round" opacity="1" fill="none"></path><path d="M374.48 259.54L395.4 274.93" stroke="#000000" stroke-width="4" stroke-linecap="round" stroke-linejoin="round" opacity="1" fill="none"></path><path d="M382.35 276.77L391.09 282.31" stroke="#000000" stroke-width="4" stroke-linecap="round" stroke-linejoin="round" opacity="1" fill="none"></path><path d="M576.35 547.57L579.18 556.74" stroke="#000000" stroke-width="4" stroke-linecap="round" stroke-linejoin="round" opacity="1" fill="none"></path><path d="M579.85 536.13L581.52 542.1" stroke="#000000" stroke-width="4" stroke-linecap="round" stroke-linejoin="round" opacity="1" fill="none"></path><path d="M515.48 376.35C518.19 377.83 524.09 379.98 524.09 379.98V386.39L515.48 376.35Z" fill="#000000" opacity="0.3" stroke-width="4" stroke="none"></path><path d="M555.42 740.96C553.57 735.72 552.04 730.43 550.5 724.77L576.1 724.59 573.58 713.26C572.96 710.37 574.75 707.48 577.64 706.86 578.01 706.8 578.38 706.74 578.81 706.74L599.12 706.86C600.23 711.91 601.58 715.48 603.55 718 607.98 723.91 612.72 727.35 616.9 730.43 621.27 733.63 625.09 736.4 627.12 741.02L627.37 746.86 555.42 740.96Z" fill="#3c2c5b" opacity="1" stroke-width="4" stroke="none"></path><path d="M555.48 741.13L555.42 740.95H627.06L627.12 741.01C628.29 743.78 628.84 746.8 628.72 749.81L558.99 749.94C558.99 749.94 557.45 746.67 555.48 741.13Z" fill="#000000" opacity="1" stroke-width="4" stroke="none"></path><path d="M454.49 741.2L454.24 740.16C453.13 734.8 452.45 730.25 451.72 724.71V724.59H472.7L470.18 713.26C469.56 710.37 471.35 707.48 474.24 706.86 474.61 706.8 474.98 706.74 475.41 706.74H494.74V706.86C494.8 711.72 495.78 715.35 497.81 718 502.18 723.91 506.86 727.35 510.92 730.43 515.23 733.63 518.92 736.03 520.89 740.65L521.08 741.2H454.49Z" fill="#3c2c5b" opacity="1" stroke-width="4" stroke="none"></path><path d="M456.58 749.94C456.52 749.94 456.52 749.94 456.58 749.94 456.46 749.44 455.53 746.3 454.49 741.13V741.01H520.96L521.02 741.07C522.12 743.84 522.68 746.86 522.62 749.87V750L456.58 749.94Z" fill="#000000" opacity="1" stroke-width="4" stroke="none"></path><path d="M603.49 718.06L594.44 723.96" stroke="#000000" stroke-width="4" stroke-linecap="round" stroke-linejoin="round" opacity="1" fill="none"></path><path d="M608.04 723.29L601.64 731.04" stroke="#000000" stroke-width="4" stroke-linecap="round" stroke-linejoin="round" opacity="1" fill="none"></path><path d="M575.92 723.72L580.53 740.52" stroke="#000000" stroke-width="4" stroke-linecap="round" stroke-linejoin="round" opacity="1" fill="none"></path><path d="M498 718.24L489.2 723.96" stroke="#000000" stroke-width="4" stroke-linecap="round" stroke-linejoin="round" opacity="1" fill="none"></path><path d="M502.61 723.54L496.46 731.05" stroke="#000000" stroke-width="4" stroke-linecap="round" stroke-linejoin="round" opacity="1" fill="none"></path><path d="M472.89 725.69L477.13 739.85" stroke="#000000" stroke-width="4" stroke-linecap="round" stroke-linejoin="round" opacity="1" fill="none"></path><path d="M486.55 351.93L486.92 363.31" stroke="#c81e1e" stroke-width="4" stroke-linecap="round" stroke-linejoin="round" opacity="1" fill="none"></path><path d="M442.67 428.17C447.16 430.94 454.49 430.94 454.49 430.94" stroke="#c81e1e" stroke-width="4" stroke-linecap="round" stroke-linejoin="round" opacity="1" fill="none"></path></g></svg>