<svg xmlns="http://www.w3.org/2000/svg" height="1000" width="1000" version="1.1" xmlns:xlink="http://www.w3.org/1999/xlink" xmlns:svgjs="http://svgjs.com/svgjs"><rect fill="#f3ebe9" width="1000" height="1000"></rect><g><path d="M557.12 448.28C555 435.74 554.09 422.8 554.14 410.11 554.14 410.11 554.14 410.06 554.19 410.06L586.95 394.48H587L607.12 429.37C608.44 433.87 609.7 438.12 611.07 442.11 611.07 442.16 611.07 442.16 611.02 442.16L584.42 451.21 557.12 448.28C557.12 448.33 557.12 448.33 557.12 448.28Z" fill="#846146" opacity="1" stroke-width="4" stroke="none"></path><path d="M645.85 468.15C653.18 457.43 661.42 447.37 670.42 438.07H670.47L701.31 449.44 701.37 449.49 694.44 487.11C691.96 491.81 689.79 496.41 688.27 499.9 688.27 499.9 688.22 499.95 688.22 499.9L662.84 489.28 645.9 468.15C645.85 468.2 645.85 468.2 645.85 468.15Z" fill="#846146" opacity="1" stroke-width="4" stroke="none"></path><path d="M288.61 549.14C287.8 544.74 287.24 540.24 286.89 535.8 286.89 535.8 286.89 535.74 286.84 535.74 281.12 534.38 250.94 517.75 253.27 511.93 254.48 508.95 268.38 515.98 267.78 515.52 268.33 516.08 248.56 501.62 250.08 495.4 250.28 494.08 251.04 493.38 251.14 493.23V493.17C248.97 488.47 252.05 486.3 255.74 486.5 255.74 486.5 255.79 486.5 255.79 486.45 256.45 481.7 262.82 484.12 268.23 488.02 272.07 490.85 276.17 493.43 280.42 495.65 280.47 495.7 280.52 495.6 280.47 495.55 279.71 494.69 276.88 491.2 277.18 488.93 277.33 487.97 278.04 487.16 279.1 487.21 282.64 487.21 292.7 493.43 302.41 505.06 306 509.35 311.51 518.76 319.55 533.62V533.67C318.84 534.23 305.85 545.6 305.49 545.96 305.04 546.06 289.62 549.04 288.66 549.14 288.61 549.19 288.61 549.19 288.61 549.14Z" fill="#846146" opacity="1" stroke-width="4" stroke="none"></path><path d="M326.17 599.9C302.31 599.45 292.85 571.64 288.61 549.24V549.19C289.67 548.64 318.33 534.38 319.55 533.77H319.6C322.03 538.12 327.79 549.35 331.78 557.28 334.01 561.73 335.73 565.12 335.98 565.68 335.98 565.73 336.03 565.73 336.08 565.68 337.4 564.61 362.93 544.09 364.29 543.03 364.34 543.03 364.34 543.03 364.39 543.03L383.66 599.8C383.66 599.85 383.66 599.85 383.61 599.85H326.17V599.9Z" fill="#ffc930" opacity="1" stroke-width="4" stroke="none"></path><path d="M331.88 557.38C334.21 562.09 335.83 565.22 335.98 565.57 335.98 565.57 335.98 565.68 335.98 565.73L328.55 571.69C328.5 571.74 328.45 571.69 328.45 571.64L331.73 557.38C331.78 557.38 331.88 557.38 331.88 557.38Z" fill="#151513" opacity="0.2" stroke-width="4" stroke="none"></path><path d="M463.34 550.76C476.54 532.05 571.54 526.39 582 524.42 581.8 524.47 571.54 505.06 563.5 476.64 560.72 466.68 558.75 457.83 557.13 448.33L611.07 442.21C612.58 446.56 613.9 450.05 615.16 453.13 618.5 461.47 623.66 472.9 628.06 482.05 628.36 482.66 628.66 483.32 628.97 483.92 630.03 486.15 631.04 488.27 632.05 490.44 647.02 522.2 657.03 547.78 634.63 572 627.4 579.83 605 590.4 539.43 596.26 500.25 599.8 460.91 596.62 460.56 596.62L463.34 550.76Z" fill="#61ccff" opacity="1" stroke-width="4" stroke="none"></path><path d="M463.34 550.76C463.39 550.66 469.31 542.92 494.38 536.25 496.41 535.69 498.43 535.44 500.55 535.44 507.48 535.44 514.2 538.27 521.38 541.31 529.62 544.79 538.93 548.74 550 548.74 551.97 548.74 553.99 548.64 555.96 548.38 572.14 546.36 588.12 536.4 603.38 518.81 615.62 504.75 623.86 489.84 627.4 483.47 627.7 483.01 627.85 482.56 628.01 482.15 628.01 482.1 628.06 482.1 628.11 482.15L630.13 486.4C631.14 488.57 630.99 488.27 632 490.39 646.91 522.09 657.03 547.68 634.63 571.89 627.4 579.73 605 590.3 539.43 596.16 500.25 599.7 464.15 599.7 463.8 599.7H463.49L463.34 550.76Z" fill="#172830" opacity="0.2" stroke-width="4" stroke="none"></path><path d="M595.09 430.53C588.77 430.63 583.61 425.22 583.72 419.26 583.72 419.01 583.67 406.37 583.67 406.92 583.11 406.82 555.76 409.96 554.19 410.06 554.14 410.06 554.14 410.06 554.14 410.01 554.14 404.29 554.59 396.71 555 393.02 555 393.02 555 393.02 555 392.97 556.87 391.25 592.41 384.73 592.61 384.68 592.87 384.68 626.84 384.52 628.61 384.68 628.66 384.68 628.66 384.73 628.66 384.73 626.94 388.16 624.42 391.5 620.83 395.09 608.39 407.53 602.78 416.88 607.07 429.32 607.07 429.37 607.07 429.37 607.02 429.37 605.91 429.52 595.09 430.79 595.09 430.53Z" fill="#ff4f32" opacity="1" stroke-width="4" stroke="none"></path><path d="M582 524.42L599.24 522.7" stroke="#172830" stroke-width="4" stroke-linecap="round" stroke-linejoin="round" opacity="1" fill="none"></path><path d="M602.57 404.24L609.25 408.24" stroke="#000000" stroke-width="4" stroke-linecap="round" stroke-linejoin="round" opacity="1" fill="none"></path><path d="M607.23 398.02L613.6 401.92" stroke="#000000" stroke-width="4" stroke-linecap="round" stroke-linejoin="round" opacity="1" fill="none"></path><path d="M321.82 465.97C318.08 470.42 316.82 482.1 316.82 482.1 316.82 482.1 316.16 486.4 316.67 488.62 317.48 492.06 318.59 495.55 319.8 499.19 320.96 502.68 322.13 506.22 323.04 509.91 325.56 520.07 331.18 530.69 346.55 529.02L384.52 535.24 356.56 457.78C353.37 453.33 347.81 453.23 342.45 454.5 333.86 456.57 326.93 459.91 321.82 465.97Z" fill="#846146" opacity="1" stroke-width="4" stroke="none"></path><path d="M316.67 488.62C316.17 486.5 315.66 484.12 315.51 481.95 314.95 475.13 316.67 469.72 320.41 465.27 321.17 464.36 322.03 463.45 322.99 462.59 330.68 456.52 341.6 452.83 351.91 452.83 362.38 453.49 374.31 467.24 378.55 479.42 367.03 477.86 360.66 482.2 349.03 482.1 326.53 482.15 316.67 488.62 316.67 488.62Z" fill="#000000" opacity="1" stroke-width="4" stroke="none"></path><path d="M341.6 499.54C342.54 499.54 343.32 498.78 343.32 497.83 343.32 496.88 342.54 496.11 341.6 496.11 340.65 496.11 339.88 496.88 339.88 497.83 339.88 498.78 340.65 499.54 341.6 499.54Z" fill="#171314" opacity="1" stroke-width="4" stroke="none"></path><path d="M326.53 503.94C327.48 503.94 328.25 503.18 328.25 502.22 328.25 501.27 327.48 500.51 326.53 500.51 325.58 500.51 324.81 501.27 324.81 502.22 324.81 503.18 325.58 503.94 326.53 503.94Z" fill="#171314" opacity="1" stroke-width="4" stroke="none"></path><path d="M334.32 502.98L334.47 504.5C334.57 505.36 335.13 506.12 335.98 506.37L336.19 506.47" stroke="#151414" stroke-width="4" stroke-linecap="round" stroke-linejoin="round" opacity="1" fill="none"></path><path d="M336.89 513.04C338.05 513.3 340.83 512.24 341.64 509.56" stroke="#151414" stroke-width="4" stroke-linecap="round" stroke-linejoin="round" opacity="1" fill="none"></path><path d="M590.19 600.97C512.43 600.97 463.84 599.85 463.39 599.85L461.26 594.9 463.39 540.95C463.44 540.85 467.94 533.92 481.99 529.73 489.53 530.34 497.11 530.64 497.11 530.64L518.55 527.15C518.55 527.15 609.85 539.33 610.41 539.39 610.46 539.23 616.02 520.78 627.9 497.72 631.49 490.85 635.59 484.23 639.63 477.75 641.91 474.11 643.88 471.08 645.9 468.2L688.27 500C683.27 511.73 679.93 521.29 675.68 533.22 661.68 577.81 641.86 601.67 590.19 600.97Z" fill="#61ccff" opacity="1" stroke-width="4" stroke="none"></path><path d="M687.11 481.6C681.19 477.1 680.54 468.3 685.59 462.99L692.97 455.05V455L670.52 438.12C670.52 438.12 670.47 438.07 670.52 438.07 674.52 433.87 678.66 429.93 683.01 426.18H683.06L713.09 443.02 740.75 469.46C740.8 469.51 740.75 469.51 740.75 469.56 737.21 470.98 732.71 471.54 728.52 471.59 710.62 471.99 700.05 474.87 694.49 487.16 694.49 487.21 694.44 487.21 694.44 487.16 693.73 486.65 687.11 481.6 687.11 481.6Z" fill="#ff4f32" opacity="1" stroke-width="4" stroke="none"></path><path d="M481.99 545.5V529.73C488.87 527.71 496.86 526.54 505.75 526.54 508.59 526.54 511.57 526.64 514.6 526.85L518.5 527.15 516.52 531.35C512.48 539.94 503.68 545.5 494.18 545.55L481.99 545.5Z" fill="#c5d9e2" opacity="1" stroke-width="4" stroke="none"></path><path d="M708.04 466.28L709.66 473.61" stroke="#000000" stroke-width="4" stroke-linecap="round" stroke-linejoin="round" opacity="1" fill="none"></path><path d="M715.67 465.37L717.14 471.94" stroke="#000000" stroke-width="4" stroke-linecap="round" stroke-linejoin="round" opacity="1" fill="none"></path><path d="M610.36 539.39L619.66 540.9" stroke="#172830" stroke-width="4" stroke-linecap="round" stroke-linejoin="round" opacity="1" fill="none"></path><path d="M350.24 599.85L371.12 557.94C371.12 557.89 371.22 557.89 371.22 557.94L383.66 599.85C383.66 599.9 383.66 599.9 383.61 599.9H350.29C350.24 599.9 350.19 599.85 350.24 599.85Z" fill="#151513" opacity="0.2" stroke-width="4" stroke="none"></path><path d="M336.03 565.73L328.45 571.79" stroke="#151513" stroke-width="4" stroke-linecap="round" stroke-linejoin="round" opacity="1" fill="none"></path><path d="M280.72 495.8L285.22 499.65C285.22 499.65 285.27 511.88 295.13 520.17" stroke="#151414" stroke-width="4" stroke-linecap="round" stroke-linejoin="round" opacity="1" fill="none"></path><path d="M255.84 486.5C255.84 486.5 271.82 500 278.04 503.64" stroke="#151414" stroke-width="4" stroke-linecap="round" stroke-linejoin="round" opacity="1" fill="none"></path><path d="M251.19 493.23C258.98 501.52 273.39 510.87 273.39 510.87" stroke="#151414" stroke-width="4" stroke-linecap="round" stroke-linejoin="round" opacity="1" fill="none"></path><path d="M267.78 515.52L270.3 517.09" stroke="#151414" stroke-width="4" stroke-linecap="round" stroke-linejoin="round" opacity="1" fill="none"></path><path d="M307.87 626.85C300.34 626.5 315.36 608.7 314.8 609.26 314.55 609.16 295.99 627.26 288.91 620.13 288.91 620.13 288.76 620.13 288.51 620.13 285.43 620.23 280.52 618.81 282.19 613.96V613.91C273.8 604.3 306.26 581.2 323.6 577.71 328.5 576.6 334.42 576.04 341.14 576.04 345.29 576.04 349.74 576.24 354.39 576.65 354.39 576.65 354.44 576.65 354.44 576.7L355.6 586.4 350.39 609.46C350.39 609.51 350.34 609.51 350.34 609.51 347.82 608.35 345.24 607.08 342.86 605.72H342.81C337.5 608.5 331.79 610.07 325.77 610.37H325.72C324.26 612.85 313.03 627.51 307.87 626.85Z" fill="#846146" opacity="1" stroke-width="4" stroke="none"></path><path d="M395.14 622.1C391.8 622.1 388.11 621.59 384.17 620.63 370.26 617.04 360.96 614.26 350.39 609.51 350.39 609.51 350.34 609.51 350.34 609.46 350.49 608.4 354.29 577.91 354.44 576.65 354.44 576.65 354.44 576.6 354.49 576.6 356.46 576.75 358.43 576.95 360.35 577.2 366.83 577.96 371.88 578.77 372.54 578.87 372.59 578.87 372.59 578.82 372.59 578.82 370.77 574.32 356.61 544.04 363.99 530.03 370.01 518.3 383.56 511.33 400.3 511.33 409.8 511.33 419.36 513.75 427.14 518.1 429.92 519.67 432.75 521.34 435.69 523.11 448.98 531.14 462.73 540.55 463.39 540.95 463.39 540.95 463.39 540.95 463.39 541V599.8C463.39 599.85 463.39 599.85 463.34 599.85H431.59 417.89C417.84 599.85 417.84 599.85 417.84 599.9 417.74 601.02 416.73 622.1 395.14 622.1Z" fill="#ffc930" opacity="1" stroke-width="4" stroke="none"></path><path d="M417.83 599.8C417.88 593.23 417.38 585.34 415.15 577.4 415.15 577.35 415.2 577.3 415.26 577.35L431.59 599.75C431.59 599.8 431.59 599.85 431.54 599.85L417.83 599.8C417.83 599.85 417.83 599.85 417.83 599.8Z" fill="#151513" opacity="0.2" stroke-width="4" stroke="none"></path><path d="M417.84 599.85C417.84 599.85 419.2 582.71 408.99 560.37" stroke="#151513" stroke-width="4" stroke-linecap="round" stroke-linejoin="round" opacity="1" fill="none"></path><path d="M346.55 529.07C346.55 529.02 346.55 529.02 346.55 529.07 348.98 528.62 360.4 527.05 362.78 510.67V510.62C356.11 503.94 353.53 497.47 350.85 490.6 346 476.74 336.59 462.74 323.09 462.59 323.04 462.59 323.04 462.54 323.04 462.49 330.32 455.76 341.39 451.26 351.96 451.26 366.57 450.4 375.82 465.42 380.98 479.78 387.66 496.97 398.98 493.98 413.34 495.45 423.45 496.36 429.01 501.47 431.89 505.66 435.58 510.97 437.1 517.7 435.69 523.05 435.69 523.11 435.64 523.11 435.64 523.11 434.73 522.55 427.09 519.06 426.48 518.81H426.43C420.47 531.09 404.44 536.35 391.04 532.41 384.52 530.69 375.88 527.1 370.41 527.05 357.17 526.29 363.69 553.69 364.3 555.97 364.3 556.02 364.25 556.12 364.2 556.07 362.17 555.72 341.6 551.37 346.55 529.07Z" fill="#ff4f32" opacity="1" stroke-width="4" stroke="none"></path><path d="M426.43 518.71C427.9 515.88 428.96 512.84 429.52 509.66 429.52 509.61 429.57 509.61 429.62 509.61 430.88 510.47 431.44 512.13 432.05 513.85 432.8 516.13 433.61 518.5 436.14 519.62L436.19 519.67C436.14 520.88 435.89 522.45 435.69 523 435.69 523.05 435.64 523.05 435.64 523.05 434.47 522.35 429.92 520.32 426.48 518.76 426.43 518.76 426.43 518.76 426.43 518.71Z" fill="#000000" opacity="0.2" stroke-width="4" stroke="none"></path><path d="M463.34 540.9V599.25" stroke="#151513" stroke-width="4" stroke-linecap="round" stroke-linejoin="round" opacity="1" fill="none"></path><path d="M555 392.97C555.41 389.23 555.86 385.43 556.52 381.54 556.52 381.54 556.52 381.49 556.57 381.49L567.29 380.28C567.29 380.28 567.34 380.28 567.34 380.33 567.95 382.3 569.72 383.67 571.79 383.82 571.89 383.82 572.04 383.82 572.14 383.82 574.77 383.82 576.95 381.74 577.15 379.22 577.15 379.22 577.15 379.17 577.2 379.17L588.37 377.9C588.37 377.9 588.42 377.9 588.42 377.95 589.94 383.41 597.97 382.55 598.28 376.84 598.28 376.84 598.28 376.79 598.33 376.79 599.04 376.69 608.74 375.63 609.45 375.53 609.45 375.53 609.5 375.53 609.5 375.58 610.01 377.85 612.08 379.47 614.4 379.47 617.08 379.52 619.56 377.14 619.41 374.46 619.41 374.41 619.41 374.41 619.46 374.41 620.17 374.31 629.62 373.25 630.48 373.15 630.48 373.15 630.53 373.15 630.53 373.2 630.68 373.76 631.85 377.9 628.71 384.73 628.71 384.73 628.71 384.78 628.66 384.78L555.05 393.07C555.05 393.02 555 392.97 555 392.97Z" fill="#000000" opacity="1" stroke-width="4" stroke="none"></path><path d="M683.06 426.08C686 423.51 688.98 421.08 692.06 418.7H692.11L700.71 425.12V425.17C699.75 427.04 700.1 429.32 701.52 430.84 702.48 431.85 703.79 432.4 705.16 432.4 706.42 432.4 707.63 431.9 708.54 431.09H708.6L717.59 437.81V437.86C715.07 442.82 721.49 447.67 725.53 443.83H725.58C726.14 444.23 734.03 450.15 734.58 450.55V450.6C733.52 452.53 733.92 454.95 735.44 456.52 737.31 458.44 740.6 458.49 742.47 456.57H742.52C742.97 456.87 748.13 460.61 749.9 462.08V462.13C749.04 463.29 746.67 467.04 740.65 469.41H740.6L683.06 426.18C683.01 426.13 683.01 426.13 683.06 426.08Z" fill="#000000" opacity="1" stroke-width="4" stroke="none"></path><path d="M426.43 518.76C427.14 517.14 428.56 515.02 429.57 509.61" stroke="#000000" stroke-width="4" stroke-linecap="round" stroke-linejoin="round" opacity="1" fill="none"></path><path d="M362.78 510.62C364.44 512.24 366.21 513.55 368.24 514.61" stroke="#000000" stroke-width="4" stroke-linecap="round" stroke-linejoin="round" opacity="1" fill="none"></path><path d="M364.34 556.12C364.34 556.12 369.4 572.8 375.97 586.45" stroke="#151513" stroke-width="4" stroke-linecap="round" stroke-linejoin="round" opacity="1" fill="none"></path><path d="M354.43 576.65C362.32 577.35 372.48 578.87 372.48 578.87" stroke="#151513" stroke-width="4" stroke-linecap="round" stroke-linejoin="round" opacity="1" fill="none"></path><path d="M557.43 448.28L610.61 442.21" stroke="#172830" stroke-width="4" stroke-linecap="round" stroke-linejoin="round" opacity="1" fill="none"></path><path d="M645.85 468.25L687.87 499.75" stroke="#172830" stroke-width="4" stroke-linecap="round" stroke-linejoin="round" opacity="1" fill="none"></path><path d="M282.19 613.91C282.19 613.91 288.91 605.06 306 592.12" stroke="#151414" stroke-width="4" stroke-linecap="round" stroke-linejoin="round" opacity="1" fill="none"></path><path d="M288.91 620.13C288.91 620.13 303.93 605.62 312.73 599.4" stroke="#151414" stroke-width="4" stroke-linecap="round" stroke-linejoin="round" opacity="1" fill="none"></path><path d="M314.39 609.61L318.94 605.62" stroke="#151414" stroke-width="4" stroke-linecap="round" stroke-linejoin="round" opacity="1" fill="none"></path></g></svg>